#!OML:ASF X:\für Bonn\!DataBase\2005_08_12_Daniel\c3d\Daniel.ASF
:FULLY-SPECIFIED
:DEGREES
66
root 0.734084 8.43588 -0.833519 48.9937 -87.0055 -76.645
lowerback 55.1253 -3.13605 5.52716
upperback 2.90462 -2.06454 -1.53221
thorax -18.4838 -1.70664 -3.03554
lowerneck 6.47154 1.60437 -1.1918
upperneck -1.99372 2.01046 -0.554102
head -1.72433 1.02246 -0.0402082
rclavicle 8.84592e-015 -7.15625e-015
rhumerus 70.2671 1.92404 -92.1166
rradius 8.33269
rwrist 56.5301
rhand -21.498 9.21879
rfingers 7.12502
rthumb 4.89352 -20.7047
lclavicle 8.84592e-015 -7.15625e-015
lhumerus 69.5588 3.04822 99.951
lradius 7.84761
lwrist -75.1573
lhand -21.1108 2.61492
lfingers 7.12502
lthumb 5.26741 32.5295
rfemur -12.2847 -60.6572 -67.0316
rtibia 139.473
rfoot -1.11161 66.8259
rtoes -2.50339
lfemur -38.3 58.3711 45.6679
ltibia 139.268
lfoot -20.9662 -61.2507
ltoes 4.62821
67
root 0.732425 8.23044 -0.834791 48.0057 -87.003 -76.3592
lowerback 55.9974 -3.21007 5.58623
upperback 2.86108 -2.11079 -1.57889
thorax -18.6309 -1.7432 -3.07048
lowerneck 6.36757 1.60142 -1.1842
upperneck -1.91718 2.01185 -0.490283
head -1.68155 1.02107 -0.0202236
rclavicle 2.98177e-015 1.55052e-014
rhumerus 70.3956 1.80947 -91.94
rradius 8.26676
rwrist 56.2917
rhand -21.5635 9.40104
rfingers 7.12502
rthumb 4.83026 -20.5239
lclavicle 2.98177e-015 1.55052e-014
lhumerus 69.6637 3.04849 99.8033
lradius 7.72137
lwrist -74.814
lhand -21.4903 2.53441
lfingers 7.12502
lthumb 4.90094 32.4577
rfemur -6.84659 -61.0958 -75.757
rtibia 141.042
rfoot -0.550145 69.258
rtoes -2.4517
lfemur -35.1419 60.3345 51.5653
ltibia 140.742
lfoot -21.2104 -63.4201
ltoes 4.80275
68
root 0.728996 8.03253 -0.835873 46.794 -87.0202 -75.89
lowerback 56.8992 -3.25823 5.59539
upperback 2.81308 -2.1495 -1.59569
thorax -18.776 -1.77399 -3.05137
lowerneck 6.33397 1.60172 -1.18994
upperneck -1.88327 2.01317 -0.472136
head -1.66484 1.02112 -0.0131427
rclavicle -1.09332e-015 1.59028e-014
rhumerus 70.5458 1.7047 -91.7172
rradius 8.11006
rwrist 55.9864
rhand -21.642 9.56079
rfingers 7.12502
rthumb 4.75448 -20.3659
lclavicle -1.09332e-015 1.59028e-014
lhumerus 69.7571 3.09082 99.6883
lradius 7.58444
lwrist -74.4622
lhand -21.7917 2.42582
lfingers 7.12502
lthumb 4.60994 32.3557
rfemur -1.74536 -60.9835 -84.1103
rtibia 142.519
rfoot -0.337911 71.5354
rtoes -2.32227
lfemur -31.4574 61.9594 57.9314
ltibia 142.139
lfoot -21.617 -65.5243
ltoes 4.98568
69
root 0.723731 7.84101 -0.836264 45.3957 -87.0501 -75.2279
lowerback 57.765 -3.31506 5.60213
upperback 2.76206 -2.20595 -1.63477
thorax -18.9165 -1.81119 -3.04893
lowerneck 6.31721 1.60538 -1.17321
upperneck -1.8232 2.02046 -0.45265
head -1.64244 1.02371 -0.0096402
rclavicle -2.28602e-015 -4.77083e-015
rhumerus 70.5999 1.58862 -91.5194
rradius 8.0205
rwrist 55.6185
rhand -21.7 9.73667
rfingers 7.12502
rthumb 4.69843 -20.1912
lclavicle -2.28602e-015 -4.77083e-015
lhumerus 69.8367 3.12508 99.5482
lradius 7.39488
lwrist -74.085
lhand -22.0722 2.30775
lfingers 7.12502
lthumb 4.33905 32.2433
rfemur 2.63936 -60.4769 -91.7752
rtibia 143.95
rfoot -0.868178 73.6636
rtoes -2.30446
lfemur -27.4821 63.238 64.5702
ltibia 143.469
lfoot -21.8759 -67.5813
ltoes 5.25992
70
root 0.718007 7.65453 -0.836112 43.979 -87.0782 -74.5616
lowerback 58.5842 -3.36636 5.6147
upperback 2.75902 -2.25875 -1.66482
thorax -18.9836 -1.84741 -3.04151
lowerneck 6.25549 1.60445 -1.14976
upperneck -1.77382 2.02187 -0.464364
head -1.61506 1.02416 -0.0164677
rclavicle -6.06293e-015 -1.39149e-014
rhumerus 70.6174 1.49027 -91.3086
rradius 8.05415
rwrist 55.1228
rhand -21.6914 9.89288
rfingers 7.12502
rthumb 4.70675 -20.0348
lclavicle -6.06293e-015 -1.39149e-014
lhumerus 69.9475 3.16617 99.421
lradius 7.20964
lwrist -73.7359
lhand -22.2623 2.15872
lfingers 7.12502
lthumb 4.15548 32.0979
rfemur 6.16961 -59.6837 -98.552
rtibia 145.322
rfoot -2.23186 75.6274
rtoes -2.49034
lfemur -23.3902 64.1454 71.3086
ltibia 144.734
lfoot -21.9724 -69.572
ltoes 5.60192
